<svg width="315" height="231" viewBox="0 0 315 231" fill="none" xmlns="http://www.w3.org/2000/svg">
<g clip-path="url(#clip0_1_821)">
<rect x="12.5" y="131.831" width="290" height="88" rx="32" fill="#0397D6" fill-opacity="0.08"/>
<path d="M83.3159 155.96C82.7855 155.788 82.2142 155.788 81.6838 155.96C81.2595 156.098 80.9606 156.325 80.7843 156.474C80.6377 156.599 80.4884 156.748 80.3849 156.852L79.5209 157.716C79.4173 157.819 79.2677 157.969 79.1432 158.115C78.9936 158.292 78.7669 158.591 78.6291 159.015C78.4567 159.545 78.4567 160.116 78.6291 160.647C78.7669 161.071 78.9936 161.37 79.1432 161.546C79.2677 161.693 79.4173 161.842 79.521 161.946L80.3848 162.81C80.4883 162.913 80.6376 163.063 80.7843 163.187C80.9606 163.337 81.2595 163.564 81.6838 163.702C82.2142 163.874 82.7855 163.874 83.3159 163.702C83.7401 163.564 84.039 163.337 84.2153 163.187C84.3619 163.063 84.5112 162.913 84.6147 162.81L85.4787 161.946C85.5824 161.842 85.732 161.693 85.8564 161.546C86.0061 161.37 86.2327 161.071 86.3706 160.647C86.5429 160.116 86.5429 159.545 86.3706 159.015C86.2327 158.591 86.0061 158.292 85.8564 158.115C85.7319 157.969 85.5824 157.819 85.4787 157.716L84.6148 156.852C84.5112 156.748 84.3619 156.599 84.2153 156.474C84.039 156.325 83.7401 156.098 83.3159 155.96Z" fill="#F8981D"/>
<path d="M66.1969 158.579C65.1216 158.075 63.878 158.075 62.8027 158.579C61.9568 158.975 61.4325 159.683 61.0786 160.239C60.7219 160.8 60.3416 161.539 59.9164 162.365L57.493 167.073C57.4076 167.239 57.3653 167.321 57.3327 167.379L57.3304 167.383L57.3264 167.386C57.2697 167.421 57.1904 167.468 57.029 167.561L52.1834 170.377C51.4642 170.795 50.8099 171.175 50.3103 171.53C49.8018 171.892 49.1785 172.41 48.8245 173.208C48.3658 174.241 48.3658 175.42 48.8245 176.454C49.1785 177.251 49.8018 177.77 50.3103 178.131C50.8098 178.486 51.4642 178.867 52.1834 179.284L57.029 182.1C57.1904 182.194 57.2697 182.24 57.3264 182.276L57.3304 182.279L57.3327 182.283C57.3653 182.341 57.4076 182.423 57.493 182.589L59.9164 187.297C60.3417 188.123 60.7219 188.862 61.0786 189.422C61.4325 189.979 61.9568 190.687 62.8027 191.083C63.878 191.587 65.1216 191.587 66.1969 191.083C67.0429 190.687 67.5671 189.979 67.921 189.422C68.2777 188.862 68.658 188.123 69.0832 187.297L71.5066 182.589C71.5921 182.423 71.6343 182.341 71.6669 182.283L71.6692 182.279L71.6733 182.276C71.7299 182.24 71.8092 182.194 71.9706 182.1L76.8163 179.284C77.5355 178.867 78.1898 178.486 78.6893 178.131C79.1978 177.77 79.8211 177.251 80.1752 176.454C80.6338 175.42 80.6338 174.241 80.1752 173.208C79.8211 172.41 79.1978 171.892 78.6893 171.53C78.1898 171.175 77.5355 170.795 76.8162 170.377L71.9706 167.561C71.8092 167.468 71.7299 167.421 71.6733 167.386L71.6692 167.383L71.6669 167.379C71.6343 167.321 71.5921 167.239 71.5066 167.073L69.0832 162.365C68.658 161.539 68.2777 160.8 67.921 160.239C67.5671 159.683 67.0429 158.975 66.1969 158.579Z" fill="#F8981D"/>
<path d="M83.6484 182.056C82.9084 181.756 82.0912 181.756 81.3512 182.056C80.8118 182.275 80.4396 182.627 80.2019 182.879C79.9815 183.113 79.7462 183.408 79.5239 183.686L77.8571 185.769C77.8226 185.812 77.7863 185.857 77.7487 185.904C77.362 186.381 76.8348 187.033 76.6269 187.833C76.4575 188.484 76.4575 189.177 76.6269 189.829C76.8348 190.629 77.3621 191.28 77.7487 191.758C77.7863 191.805 77.8226 191.849 77.8571 191.893L79.5238 193.976C79.7461 194.254 79.9815 194.548 80.2019 194.782C80.4396 195.034 80.8118 195.386 81.3512 195.605C82.0912 195.906 82.9084 195.906 83.6484 195.605C84.1878 195.386 84.56 195.034 84.7977 194.782C85.0181 194.548 85.2535 194.254 85.4759 193.976L87.1425 191.893C87.1768 191.85 87.2129 191.805 87.2503 191.759C87.6369 191.281 88.1648 190.629 88.3728 189.829C88.5422 189.177 88.5422 188.484 88.3728 187.833C88.1648 187.033 87.6376 186.381 87.251 185.904C87.2133 185.857 87.177 185.812 87.1425 185.769L85.4758 183.686C85.2536 183.408 85.0181 183.113 84.7977 182.879C84.56 182.627 84.1878 182.275 83.6484 182.056Z" fill="#F8981D"/>
<path d="M128.484 183.831H125.124L117.516 172.335V183.831H114.156V167.055H117.516L125.124 178.575V167.055H128.484V183.831ZM137.708 184.047C136.428 184.047 135.276 183.767 134.252 183.207C133.228 182.631 132.42 181.823 131.828 180.783C131.252 179.743 130.964 178.543 130.964 177.183C130.964 175.823 131.26 174.623 131.852 173.583C132.46 172.543 133.284 171.743 134.324 171.183C135.364 170.607 136.524 170.319 137.804 170.319C139.084 170.319 140.244 170.607 141.284 171.183C142.324 171.743 143.14 172.543 143.732 173.583C144.34 174.623 144.644 175.823 144.644 177.183C144.644 178.543 144.332 179.743 143.708 180.783C143.1 181.823 142.268 182.631 141.212 183.207C140.172 183.767 139.004 184.047 137.708 184.047ZM137.708 181.119C138.316 181.119 138.884 180.975 139.412 180.687C139.956 180.383 140.388 179.935 140.708 179.343C141.028 178.751 141.188 178.031 141.188 177.183C141.188 175.919 140.852 174.951 140.18 174.279C139.524 173.591 138.716 173.247 137.756 173.247C136.796 173.247 135.988 173.591 135.332 174.279C134.692 174.951 134.372 175.919 134.372 177.183C134.372 178.447 134.684 179.423 135.308 180.111C135.948 180.783 136.748 181.119 137.708 181.119ZM165.541 170.535L161.653 183.831H158.029L155.605 174.543L153.181 183.831H149.533L145.621 170.535H149.029L151.381 180.663L153.925 170.535H157.477L159.973 180.639L162.325 170.535H165.541ZM180.854 183.999C179.286 183.999 177.846 183.631 176.534 182.895C175.222 182.159 174.182 181.143 173.414 179.847C172.646 178.535 172.262 177.055 172.262 175.407C172.262 173.775 172.646 172.311 173.414 171.015C174.182 169.703 175.222 168.679 176.534 167.943C177.846 167.207 179.286 166.839 180.854 166.839C182.438 166.839 183.878 167.207 185.174 167.943C186.486 168.679 187.518 169.703 188.27 171.015C189.038 172.311 189.422 173.775 189.422 175.407C189.422 177.055 189.038 178.535 188.27 179.847C187.518 181.143 186.486 182.159 185.174 182.895C183.862 183.631 182.422 183.999 180.854 183.999ZM180.854 180.999C181.862 180.999 182.75 180.775 183.518 180.327C184.286 179.863 184.886 179.207 185.318 178.359C185.75 177.511 185.966 176.527 185.966 175.407C185.966 174.287 185.75 173.311 185.318 172.479C184.886 171.631 184.286 170.983 183.518 170.535C182.75 170.087 181.862 169.863 180.854 169.863C179.846 169.863 178.95 170.087 178.166 170.535C177.398 170.983 176.798 171.631 176.366 172.479C175.934 173.311 175.718 174.287 175.718 175.407C175.718 176.527 175.934 177.511 176.366 178.359C176.798 179.207 177.398 179.863 178.166 180.327C178.95 180.775 179.846 180.999 180.854 180.999ZM198.018 173.295H195.69V183.831H192.282V173.295H190.77V170.535H192.282V169.863C192.282 168.231 192.746 167.031 193.674 166.263C194.602 165.495 196.002 165.135 197.874 165.183V168.015C197.058 167.999 196.49 168.135 196.17 168.423C195.85 168.711 195.69 169.231 195.69 169.983V170.535H198.018V173.295ZM206.291 173.295H203.963V183.831H200.555V173.295H199.043V170.535H200.555V169.863C200.555 168.231 201.019 167.031 201.947 166.263C202.875 165.495 204.275 165.135 206.147 165.183V168.015C205.331 167.999 204.763 168.135 204.443 168.423C204.123 168.711 203.963 169.231 203.963 169.983V170.535H206.291V173.295ZM220.829 176.895C220.829 177.375 220.797 177.807 220.733 178.191H211.013C211.093 179.151 211.429 179.903 212.021 180.447C212.613 180.991 213.341 181.263 214.205 181.263C215.453 181.263 216.341 180.727 216.869 179.655H220.493C220.109 180.935 219.373 181.991 218.285 182.823C217.197 183.639 215.861 184.047 214.277 184.047C212.997 184.047 211.845 183.767 210.821 183.207C209.813 182.631 209.021 181.823 208.445 180.783C207.885 179.743 207.604 178.543 207.604 177.183C207.604 175.807 207.885 174.599 208.445 173.559C209.005 172.519 209.789 171.719 210.797 171.159C211.805 170.599 212.965 170.319 214.277 170.319C215.541 170.319 216.669 170.591 217.661 171.135C218.669 171.679 219.445 172.455 219.989 173.463C220.549 174.455 220.829 175.599 220.829 176.895ZM217.349 175.935C217.333 175.071 217.021 174.383 216.413 173.871C215.805 173.343 215.061 173.079 214.181 173.079C213.349 173.079 212.645 173.335 212.069 173.847C211.509 174.343 211.165 175.039 211.037 175.935H217.349ZM226.641 172.599C227.073 171.895 227.633 171.343 228.321 170.943C229.025 170.543 229.825 170.343 230.721 170.343V173.871H229.833C228.777 173.871 227.977 174.119 227.433 174.615C226.905 175.111 226.641 175.975 226.641 177.207V183.831H223.281V170.535H226.641V172.599ZM234.688 168.951C234.096 168.951 233.6 168.767 233.2 168.399C232.816 168.015 232.624 167.543 232.624 166.983C232.624 166.423 232.816 165.959 233.2 165.591C233.6 165.207 234.096 165.015 234.688 165.015C235.28 165.015 235.768 165.207 236.152 165.591C236.552 165.959 236.752 166.423 236.752 166.983C236.752 167.543 236.552 168.015 236.152 168.399C235.768 168.767 235.28 168.951 234.688 168.951ZM236.344 170.535V183.831H232.984V170.535H236.344ZM247.032 170.343C248.616 170.343 249.896 170.847 250.872 171.855C251.848 172.847 252.336 174.239 252.336 176.031V183.831H248.976V176.487C248.976 175.431 248.712 174.623 248.184 174.063C247.656 173.487 246.936 173.199 246.024 173.199C245.096 173.199 244.36 173.487 243.816 174.063C243.288 174.623 243.024 175.431 243.024 176.487V183.831H239.664V170.535H243.024V172.191C243.472 171.615 244.04 171.167 244.728 170.847C245.432 170.511 246.2 170.343 247.032 170.343ZM260.739 170.319C261.731 170.319 262.603 170.519 263.355 170.919C264.107 171.303 264.699 171.807 265.131 172.431V170.535H268.515V183.927C268.515 185.159 268.267 186.255 267.771 187.215C267.275 188.191 266.531 188.959 265.539 189.519C264.547 190.095 263.347 190.383 261.939 190.383C260.051 190.383 258.499 189.943 257.283 189.063C256.083 188.183 255.403 186.983 255.243 185.463H258.579C258.755 186.071 259.131 186.551 259.707 186.903C260.299 187.271 261.011 187.455 261.843 187.455C262.819 187.455 263.611 187.159 264.219 186.567C264.827 185.991 265.131 185.111 265.131 183.927V181.863C264.699 182.487 264.099 183.007 263.331 183.423C262.579 183.839 261.715 184.047 260.739 184.047C259.619 184.047 258.595 183.759 257.667 183.183C256.739 182.607 256.003 181.799 255.459 180.759C254.931 179.703 254.667 178.495 254.667 177.135C254.667 175.791 254.931 174.599 255.459 173.559C256.003 172.519 256.731 171.719 257.643 171.159C258.571 170.599 259.603 170.319 260.739 170.319ZM265.131 177.183C265.131 176.367 264.971 175.671 264.651 175.095C264.331 174.503 263.899 174.055 263.355 173.751C262.811 173.431 262.227 173.271 261.603 173.271C260.979 173.271 260.403 173.423 259.875 173.727C259.347 174.031 258.915 174.479 258.579 175.071C258.259 175.647 258.099 176.335 258.099 177.135C258.099 177.935 258.259 178.639 258.579 179.247C258.915 179.839 259.347 180.295 259.875 180.615C260.419 180.935 260.995 181.095 261.603 181.095C262.227 181.095 262.811 180.943 263.355 180.639C263.899 180.319 264.331 179.871 264.651 179.295C264.971 178.703 265.131 177.999 265.131 177.183Z" fill="#0397D6"/>
<g clip-path="url(#clip1_1_821)">
<path d="M147.016 133.055C146.629 133.053 146.252 132.848 146.049 132.489C145.749 131.957 145.943 131.284 146.481 130.988L154.373 126.648L154.503 110.937C154.507 110.327 155.012 109.837 155.629 109.843C156.246 109.85 156.742 110.347 156.735 110.957L156.594 127.953L147.565 132.918C147.391 133.014 147.202 133.06 147.014 133.058L147.016 133.055Z" fill="black"/>
<path d="M157.145 135.404C156.698 135.4 156.277 135.13 156.109 134.689L153.91 128.918C153.701 128.367 153.848 127.752 154.287 127.354C154.725 126.955 155.358 126.861 155.895 127.114L164.343 131.092C164.9 131.354 165.136 132.014 164.869 132.563C164.605 133.114 163.937 133.347 163.382 133.084L156.682 129.929L158.201 133.912C158.419 134.482 158.126 135.119 157.551 135.334C157.418 135.384 157.282 135.406 157.147 135.406L157.145 135.404Z" fill="black"/>
<path d="M158.957 133.151C158.569 133.149 158.192 132.944 157.989 132.585C157.689 132.053 157.883 131.38 158.421 131.084L166.313 126.744L166.443 111.033C166.447 110.423 166.952 109.933 167.569 109.939C168.186 109.944 168.682 110.442 168.675 111.052L168.534 128.049L159.505 133.014C159.331 133.11 159.142 133.156 158.954 133.153L158.957 133.151Z" fill="black"/>
<path d="M169.083 135.5C168.635 135.496 168.215 135.225 168.047 134.785L165.848 129.014C165.638 128.463 165.786 127.848 166.225 127.45C166.663 127.051 167.296 126.957 167.833 127.21L176.28 131.188C176.838 131.45 177.074 132.11 176.807 132.659C176.543 133.21 175.875 133.443 175.32 133.18L168.62 130.025L170.138 134.008C170.357 134.578 170.064 135.215 169.488 135.43C169.356 135.48 169.219 135.502 169.085 135.502L169.083 135.5Z" fill="black"/>
<path d="M133.091 95.9648C133.091 95.9648 120.964 102.734 103.128 108.364L105.526 112.782C105.526 112.782 123.657 105.712 123.921 105.203C124.185 104.693 107.465 114.264 106.231 114.852L107.454 117.186L115.474 114.41L108.488 118.53L110.306 122.083C110.306 122.083 130.592 112.462 140.105 105.309L133.091 95.9648Z" fill="#00698A"/>
<path d="M144.676 70.683C138.281 70.9031 124.459 63.0532 111.309 57.8743C108.239 56.6651 104.792 58.3689 102.811 56.5344C102.703 56.6063 102.575 56.663 102.419 56.6913C101.489 56.8699 100.554 57.0137 99.6178 57.1314C99.4988 57.3645 99.2784 57.5497 98.9324 57.6194C98.8729 57.6303 98.8134 57.6412 98.7561 57.6521C98.6834 58.016 98.441 58.3319 97.9936 58.4147C95.9 58.8003 93.7734 58.8569 91.6644 59.1162C91.3007 59.1598 91.0341 59.0487 90.86 58.8548C90.4236 58.8896 89.9895 58.9288 89.5532 58.9681C89.6171 59.2927 89.6567 59.4713 89.6567 59.4713L88.3058 70.6199L83.1666 77.9796C89.3989 99.9367 140.341 88.8993 142.825 85.945C145.311 82.9928 144.674 70.6809 144.674 70.6809L144.676 70.683Z" fill="#00698A"/>
<path d="M196.762 71.1122C196.72 75.9772 195.718 80.9317 193.928 85.6464C193.287 87.3458 192.54 89.0147 191.702 90.6357C191.244 91.5203 190.761 92.3896 190.25 93.2414C189.463 94.5552 188.615 95.8319 187.709 97.0586C180.86 106.336 170.738 112.889 159.494 112.798C139.101 112.634 122.76 90.6727 122.927 70.5152C122.954 67.4693 123.357 64.1381 124.097 60.6761C124.146 60.4539 124.194 60.2294 124.245 60.005C124.498 58.8743 124.789 57.7304 125.113 56.5779C125.411 55.519 125.737 54.4558 126.092 53.3883C131.903 35.8212 145.095 17.7335 160.285 17.8555C180.679 18.0211 196.928 50.9546 196.762 71.1122Z" fill="#1490CE"/>
<path d="M162.851 80.2934L162.826 79.8533C164.669 79.753 165.731 79.2977 165.987 78.5003C166.608 76.5634 162.478 72.8073 160.834 71.5218L161.112 71.1754C161.363 71.3715 167.254 76.01 166.414 78.6332C166.097 79.6245 164.898 80.1823 162.851 80.2934Z" fill="black"/>
<path d="M179.136 43.0569C179.198 35.7146 175.932 29.7362 171.844 29.7035C167.756 29.6708 164.391 35.5948 164.329 42.9371C164.268 50.2794 167.534 56.2578 171.622 56.2905C175.71 56.3231 179.075 50.3992 179.136 43.0569Z" fill="white"/>
<path d="M156.03 43.5318C156.096 35.5751 152.559 29.0934 148.127 29.0585C143.698 29.0215 140.05 35.4443 139.984 43.401C139.918 51.3577 143.455 57.8394 147.887 57.8743C150.657 57.8961 153.119 55.3971 154.593 51.5756C155.477 49.2836 156.006 46.5166 156.03 43.5318Z" fill="white"/>
<path d="M165.176 32.2526C165.403 30.5248 166.381 29.3483 167.509 28.5161C168.655 27.7034 170.026 27.2459 171.406 27.2001C172.779 27.174 174.165 27.4616 175.342 28.174C175.943 28.4965 176.468 28.991 176.95 29.503C177.184 29.7688 177.395 30.0826 177.587 30.4137C177.68 30.5837 177.772 30.7514 177.86 30.9279C177.935 31.1218 178.021 31.2896 178.085 31.5031L177.946 31.8364C176.902 31.5096 175.853 31.209 174.784 31.0456C173.722 30.8408 172.638 30.7994 171.564 30.8299C170.487 30.856 169.42 31.0434 168.38 31.3179C167.346 31.6033 166.319 31.9911 165.403 32.538L165.173 32.2547L165.176 32.2526Z" fill="black"/>
<path d="M141.273 33.1654C141.5 31.4377 142.479 30.2612 143.607 29.4289C144.753 28.6162 146.124 28.1587 147.504 28.113C148.876 28.0868 150.263 28.3744 151.439 29.0868C152.043 29.4093 152.566 29.9039 153.048 30.4159C153.282 30.6817 153.493 30.9954 153.685 31.3266C153.778 31.4965 153.87 31.6643 153.958 31.8407C154.033 32.0347 154.119 32.2024 154.183 32.4159L154.044 32.7493C153 32.4225 151.951 32.1218 150.882 31.9584C149.82 31.7536 148.735 31.7122 147.662 31.7427C146.585 31.7688 145.518 31.9562 144.484 32.2307C143.451 32.5162 142.424 32.904 141.507 33.4508L141.273 33.1676V33.1654Z" fill="black"/>
<path d="M165.771 55.9746L164.636 58.5259C164.25 59.3886 163.629 60.1011 162.862 60.6C162.095 61.0968 161.189 61.38 160.233 61.3865C158.324 61.3996 156.583 60.2994 155.792 58.5847L154.624 56.0487C154.675 55.8635 154.73 55.687 154.796 55.5083C155.162 54.4909 155.741 53.5736 156.486 52.8089C157.235 52.0376 158.152 51.4211 159.188 51.018L160.162 50.6367L161.14 51.0049C162.181 51.3949 163.104 51.9984 163.86 52.761C163.928 52.822 163.988 52.8852 164.047 52.9505C164.556 53.4952 164.986 54.114 165.314 54.7894C165.416 55.0007 165.511 55.2164 165.592 55.4386C165.66 55.6129 165.715 55.785 165.768 55.9659C165.768 55.9724 165.768 55.9746 165.768 55.9746H165.771Z" fill="black"/>
<path d="M165.314 54.7893C164.614 55.2839 163.752 55.4691 162.897 55.3732C162.89 55.3732 162.881 55.3732 162.875 55.371C162.324 55.3144 161.771 55.4691 161.308 55.7698L160.197 56.4953L159.08 55.761C158.813 55.5846 158.514 55.4538 158.198 55.3994C157.912 55.3493 157.652 55.3471 157.421 55.3907C156.689 55.5345 155.929 55.3928 155.265 55.053L155.032 54.9222C155.237 54.4908 155.611 53.7021 156.486 52.8045C157.235 52.0332 158.15 51.4167 159.188 51.0136L160.162 50.6323L161.14 51.0005C162.183 51.3883 163.106 51.994 163.862 52.7566C163.928 52.8176 163.99 52.8808 164.049 52.9461C164.845 53.798 165.09 54.1357 165.317 54.785L165.314 54.7893Z" fill="#F4931E"/>
<path d="M165.771 55.9745C165.771 55.9745 165.771 55.9745 165.771 55.9658C165.718 55.785 165.663 55.6129 165.594 55.4386C165.513 55.2163 165.418 55.0006 165.317 54.7893L163.822 56.188C163.822 56.188 163.657 60.0117 160.805 60.4867C160.625 60.5172 160.431 60.5346 160.228 60.5346C160.025 60.5346 159.834 60.5193 159.653 60.4888C156.938 60.0313 156.574 56.2338 156.574 56.2338C156.026 55.883 155.342 55.8002 154.723 56.0138L154.677 56.029C154.677 55.9876 154.655 55.944 154.626 56.0464L155.737 58.4561C156.413 59.9224 157.747 61.0335 159.353 61.3102C160.625 61.5303 161.866 61.2449 162.864 60.5956C163.633 60.0989 164.252 59.3864 164.64 58.5236L165.775 55.9724L165.771 55.9745Z" fill="#F4931E"/>
<path d="M154.624 56.0486L156.398 56.5453L156.579 56.2338L155.062 54.859C154.965 55.0725 154.873 55.2882 154.796 55.5126C154.73 55.6869 154.679 55.8612 154.628 56.0421C154.628 56.0486 154.628 56.0508 154.628 56.0508L154.624 56.0486Z" fill="#F4931E"/>
<path d="M130.081 10.5459C130.05 10.4936 130.01 10.4457 129.959 10.4043C130.001 10.4501 130.041 10.498 130.081 10.5459Z" fill="#0E3980"/>
<path d="M143.184 22.9384L147.074 8.4129C147.497 6.83987 149.41 6.21893 150.695 7.22768L163.368 17.2019L143.184 22.9384Z" fill="#F4931E"/>
<path d="M164.984 16.8446L164.19 16.1757C164.089 16.0907 163.992 16.008 163.891 15.9295C163.518 15.618 163.146 15.3129 162.769 15.0145C162.086 14.4632 161.394 13.9207 160.713 13.3673C159.547 12.437 158.39 11.4936 157.207 10.5895L153.667 7.85518C153.079 7.39764 152.477 6.9619 151.878 6.5109L151.655 6.34532C151.567 6.2865 151.532 6.24946 151.393 6.15795C151.164 5.99019 150.904 5.85293 150.633 5.74182C150.089 5.52612 149.489 5.4564 148.916 5.52394C147.775 5.65902 146.71 6.37147 146.214 7.402C146.089 7.63948 146.003 7.93579 145.943 8.16455L145.815 8.74409L145.564 9.89882L145.075 12.2039L144.65 14.4872C144.277 16.4982 143.955 18.4372 143.629 20.2783C143.554 20.7227 143.475 21.1585 143.393 21.592C143.312 22.0387 143.23 22.4788 143.147 22.9123C143.142 22.9385 143.136 22.9668 143.131 22.9929L143.982 22.8143H144.006L147.938 21.9994L153.05 20.9602C153.557 20.8578 154.066 20.7467 154.578 20.6356C154.835 20.5811 155.098 20.5223 155.362 20.4613C155.378 20.4613 155.395 20.4569 155.408 20.4504C156.385 20.2369 157.379 20.0168 158.364 19.7924C158.928 19.6617 159.494 19.5244 160.058 19.3828C161.286 19.08 162.511 18.764 163.734 18.4525L166.163 17.8294L164.988 16.8424L164.984 16.8446ZM163.08 17.1431L143.237 22.884L143.598 21.5681L143.964 20.2347L145.58 14.3478L146.741 10.0905L147.032 9.02733C147.133 8.67002 147.197 8.30617 147.365 8.00115C147.693 7.37804 148.354 6.94447 149.057 6.87693C149.41 6.83989 149.769 6.89218 150.093 7.02944C150.421 7.15581 150.69 7.39764 150.988 7.62859L152.74 9.01426L156.246 11.7878L161.209 15.6746L162.377 16.5897L163.082 17.1409L163.236 17.0951L163.333 17.069L163.316 17.1583L163.305 17.2171L163.287 17.2999L163.212 17.2433L163.082 17.1387L163.08 17.1431Z" fill="#282C2D"/>
<path d="M172.981 15.5134C161.619 22.3044 148.372 26.0453 134.578 25.8819C134.124 25.8754 133.717 25.603 133.534 25.1912L132.119 21.9754C146.798 22.6748 160.929 18.6856 172.737 11.145L173.698 13.3237C174.052 14.1255 173.739 15.0624 172.981 15.5112V15.5134Z" fill="#F4931E"/>
<path d="M132.203 23.2653C143.484 23.786 154.86 21.5572 165.081 16.801C167.972 15.4568 170.778 13.9273 173.464 12.2148C174.87 11.3215 173.415 9.18857 172.012 10.084C162.892 15.8925 152.409 19.5179 141.597 20.5005C138.417 20.7881 135.229 20.8534 132.042 20.7031C131.341 20.6704 130.788 21.433 130.83 22.0692C130.874 22.823 131.506 23.237 132.205 23.2675L132.203 23.2653Z" fill="black"/>
<g opacity="0.2">
<path d="M161.048 135.411C182.671 135.411 200.2 134.399 200.2 133.151C200.2 131.904 182.671 130.892 161.048 130.892C139.425 130.892 121.896 131.904 121.896 133.151C121.896 134.399 139.425 135.411 161.048 135.411Z" fill="#52585A"/>
</g>
<path d="M193.928 85.6465C193.287 87.3459 192.54 89.0148 191.702 90.6357C184.708 93.3918 177.019 94.6511 169.05 94.0563C165.482 93.7905 162.024 93.1631 158.712 92.2153C142.649 87.6226 129.962 75.4653 124.245 60.0051C124.498 58.8743 124.789 57.7305 125.113 56.578C125.411 55.5191 125.737 54.4559 126.092 53.3883C130.583 70.744 142.294 82.4328 158.824 88.3982C162.121 89.5878 165.691 90.0998 169.332 90.3721C178.107 91.0279 186.517 89.2697 193.928 85.6465Z" fill="#F4931E"/>
<path d="M135.559 73.0513L152.658 77.912L148.2 94.5357L144.841 94.5531L127.573 89.1542L131.643 73.2343L135.559 73.0513Z" fill="#B55700"/>
<path d="M152.658 77.912L149.546 78.1669L131.643 73.2343L135.559 73.0513L152.658 77.912Z" fill="#722E00"/>
<path d="M149.546 78.1669L144.841 94.553L127.573 89.1542L131.643 73.2343L139.147 81.7269L149.546 78.1669Z" fill="#F4931E"/>
<path d="M139.059 83.2106C139.847 83.2106 140.487 82.5785 140.487 81.7988C140.487 81.0191 139.847 80.387 139.059 80.387C138.27 80.387 137.631 81.0191 137.631 81.7988C137.631 82.5785 138.27 83.2106 139.059 83.2106Z" fill="#FDDC12"/>
<path d="M209.337 58.7305C209.337 58.7305 210.227 66.7155 200.152 79.6201C199.255 80.7705 198.272 81.9579 197.194 83.1801C196.416 84.0625 195.131 83.9558 194.512 83.1801C195.865 79.0427 196.599 74.7594 196.599 70.5501C196.599 62.5803 193.968 52.5909 189.514 43.5056C189.95 42.7692 190.581 42.1374 191.37 41.6929C192.835 40.8715 194.675 39.7277 196.764 38.2026C203.224 33.4878 212.05 25.1106 219.327 11.1755C224.42 0.512874 222.192 26.3286 215.984 38.61C215.984 38.61 218.762 47.7127 209.335 58.7305H209.337Z" fill="#00698A"/>
<path d="M215.984 38.6078C212.698 42.9086 208.504 46.6669 203.623 49.1092C207.865 45.8673 211.953 42.1025 215.984 38.6078Z" fill="black"/>
<path d="M209.377 58.5605C206.924 62.1794 202.917 64.7808 198.646 65.7808C202.53 63.8134 206.108 61.4212 209.377 58.5605Z" fill="black"/>
<path d="M148.775 48.5907C150.096 48.5907 151.166 47.5324 151.166 46.2268C151.166 44.9213 150.096 43.8629 148.775 43.8629C147.455 43.8629 146.384 44.9213 146.384 46.2268C146.384 47.5324 147.455 48.5907 148.775 48.5907Z" fill="black"/>
<path d="M171.055 48.5907C172.376 48.5907 173.446 47.5324 173.446 46.2268C173.446 44.9213 172.376 43.8629 171.055 43.8629C169.735 43.8629 168.664 44.9213 168.664 46.2268C168.664 47.5324 169.735 48.5907 171.055 48.5907Z" fill="black"/>
<path d="M87.947 43.2257L87.4507 43.2662C87.3387 43.2754 87.2412 43.1937 87.2319 43.083L87.0413 40.8009C87.0321 40.6901 87.1147 40.5938 87.2267 40.5846L87.7231 40.5441L87.947 43.2257Z" fill="url(#paint0_linear_1_821)"/>
<path style="mix-blend-mode:soft-light" d="M87.947 43.2257L87.4507 43.2662C87.3387 43.2754 87.2412 43.1937 87.2319 43.083L87.0413 40.8009C87.0321 40.6901 87.1147 40.5938 87.2267 40.5846L87.7231 40.5441L87.947 43.2257Z" fill="url(#paint1_linear_1_821)"/>
<path d="M88.5316 50.1799L88.0352 50.2204C87.9232 50.2296 87.8257 50.1479 87.8165 50.0372L87.4491 45.6381C87.4398 45.5273 87.5224 45.4309 87.6344 45.4218L88.1308 45.3813L88.5314 50.1778L88.5316 50.1799Z" fill="url(#paint2_linear_1_821)"/>
<path style="mix-blend-mode:soft-light" d="M88.5316 50.1799L88.0352 50.2204C87.9232 50.2296 87.8257 50.1479 87.8165 50.0372L87.4491 45.6381C87.4398 45.5273 87.5224 45.4309 87.6344 45.4218L88.1308 45.3813L88.5314 50.1778L88.5316 50.1799Z" fill="url(#paint3_linear_1_821)"/>
<path d="M89.0344 56.2068L88.538 56.2473C88.426 56.2564 88.3285 56.1748 88.3193 56.064L87.9519 51.6649C87.9427 51.5542 88.0253 51.4578 88.1373 51.4487L88.6336 51.4081L89.0342 56.2046L89.0344 56.2068Z" fill="url(#paint4_linear_1_821)"/>
<path style="mix-blend-mode:soft-light" d="M89.0344 56.2068L88.538 56.2473C88.426 56.2564 88.3285 56.1748 88.3193 56.064L87.9519 51.6649C87.9427 51.5542 88.0253 51.4578 88.1373 51.4487L88.6336 51.4081L89.0342 56.2046L89.0344 56.2068Z" fill="url(#paint5_linear_1_821)"/>
<path d="M119.925 44.2432L120.422 44.2026C120.534 44.1935 120.631 44.2752 120.64 44.3859L121.242 51.5904C121.251 51.7011 121.169 51.7975 121.057 51.8067L120.56 51.8472L119.925 44.2453L119.925 44.2432Z" fill="#36B6F3"/>
<path d="M119.925 44.2432L120.422 44.2026C120.534 44.1935 120.631 44.2752 120.64 44.3859L121.242 51.5904C121.251 51.7011 121.169 51.7975 121.057 51.8067L120.56 51.8472L119.925 44.2453L119.925 44.2432Z" fill="url(#paint6_linear_1_821)"/>
<path d="M115.693 29.8822L89.9764 31.9814C88.1533 32.1302 86.7974 33.712 86.9479 35.5144L91.7861 93.4456C91.9366 95.248 93.5365 96.5884 95.3597 96.4396L121.076 94.3404C122.899 94.1916 124.255 92.6099 124.105 90.8075L119.266 32.8763C119.116 31.0739 117.516 29.7334 115.693 29.8822Z" fill="#29A8E6"/>
<path d="M91.9665 32.8112L114.382 30.9815C116.291 30.8257 117.967 32.2301 118.124 34.117L122.731 89.2819C122.912 91.4445 121.282 93.3462 119.094 93.5247L97.2479 95.308C94.7946 95.5083 92.6381 93.7015 92.4356 91.2761L87.9449 37.5052C87.745 35.1124 89.5464 33.011 91.9667 32.8134L91.9665 32.8112Z" fill="url(#paint7_linear_1_821)"/>
<path d="M119.068 93.9713L96.8454 95.7861C94.6284 95.9648 92.6803 94.3351 92.4952 92.139L91.9354 85.435L116.433 32.137C117.407 32.7906 118.09 33.8603 118.193 35.1109L122.753 89.6661C122.938 91.8623 121.285 93.7883 119.068 93.9713Z" fill="url(#paint8_linear_1_821)"/>
<path d="M87.9926 39.0085L87.9582 38.5959L87.1324 38.6634L87.1668 39.0759L87.9926 39.0085Z" fill="#606060"/>
<path d="M119.533 36.4742L119.499 36.0616L118.673 36.1291L118.707 36.5416L119.533 36.4742Z" fill="#606060"/>
<path d="M123.839 87.9881L123.805 87.5756L122.979 87.643L123.013 88.0555L123.839 87.9881Z" fill="#606060"/>
<path d="M92.363 90.318L92.3285 89.9054L91.5027 89.9728L91.5372 90.3854L92.363 90.318Z" fill="#606060"/>
<path d="M114.119 30.4986L91.6357 32.3352C89.1653 32.5379 87.3273 34.6795 87.5323 37.1219L92.0985 91.7577C92.3035 94.2001 94.4698 96.0171 96.9402 95.8145L119.423 93.9778C121.894 93.7752 123.731 91.6335 123.526 89.1912L118.96 34.5554C118.755 32.113 116.589 30.296 114.119 30.4986ZM121.913 89.2762C122.048 90.8949 120.831 92.3155 119.194 92.4484L96.8917 94.2698C95.2543 94.4027 93.8175 93.2 93.683 91.5812L89.1388 37.2287C89.0044 35.6099 90.2209 34.1893 91.8583 34.0564L94.6571 33.8277C94.9546 33.8037 95.2168 34.0216 95.2411 34.3157L95.2808 34.795C95.3359 35.4595 95.9265 35.9563 96.6008 35.8996L109.788 34.8212C110.46 34.7667 110.963 34.1828 110.906 33.5161L110.866 33.0368C110.842 32.7427 111.062 32.4834 111.359 32.4594L114.158 32.2307C115.796 32.0978 117.233 33.3004 117.367 34.9192L121.911 89.2718L121.913 89.2762Z" fill="#010101"/>
<path opacity="0.6" d="M90.287 32.8538L90.8181 33.259C90.8181 33.259 91.1663 33.1261 92.2329 33.039C93.2996 32.9518 113.733 31.2829 113.733 31.2829C113.733 31.2829 114.826 31.2132 115.203 31.4877L115.597 30.9692C115.597 30.9692 114.954 30.6554 113.709 30.7578C112.464 30.8602 91.1994 32.5967 91.1994 32.5967C91.1994 32.5967 90.7079 32.6773 90.2848 32.8538H90.287Z" fill="url(#paint9_linear_1_821)"/>
<path opacity="0.5" d="M95.5254 95.5007L95.9816 95.0149C95.9816 95.0149 96.3474 95.089 97.414 95.0018C98.4806 94.9147 118.914 93.2458 118.914 93.2458C118.914 93.2458 120.005 93.1368 120.329 92.8057L120.805 93.2545C120.805 93.2545 120.223 93.6663 118.978 93.7687C117.733 93.8711 96.4686 95.6075 96.4686 95.6075C96.4686 95.6075 95.9705 95.6075 95.5254 95.5029V95.5007Z" fill="white"/>
<path opacity="0.6" d="M87.6337 36.7123L88.1714 37.2439L91.8186 80.8641L91.358 81.2584L87.6337 36.7123Z" fill="url(#paint10_linear_1_821)"/>
<path opacity="0.6" d="M118.603 33.9126L118.163 34.5248L121.808 78.145L122.328 78.4587L118.603 33.9126Z" fill="url(#paint11_linear_1_821)"/>
<path d="M107.518 34.0608C107.802 34.0608 108.032 33.8335 108.032 33.5532C108.032 33.2728 107.802 33.0455 107.518 33.0455C107.235 33.0455 107.005 33.2728 107.005 33.5532C107.005 33.8335 107.235 34.0608 107.518 34.0608Z" fill="#004E75"/>
<path style="mix-blend-mode:soft-light" opacity="0.6" d="M108.03 33.4922C108.065 33.7711 107.864 34.0238 107.584 34.0586C107.305 34.0935 107.047 33.8952 107.011 33.6185C106.976 33.3397 107.177 33.0869 107.457 33.0521C107.736 33.0172 107.994 33.2155 108.03 33.4922Z" fill="url(#paint12_linear_1_821)"/>
<path d="M107.518 33.9366C107.733 33.9366 107.906 33.7649 107.906 33.5531C107.906 33.3414 107.733 33.1697 107.518 33.1697C107.304 33.1697 107.13 33.3414 107.13 33.5531C107.13 33.7649 107.304 33.9366 107.518 33.9366Z" fill="#333333"/>
<path style="mix-blend-mode:soft-light" opacity="0.6" d="M107.518 33.9366C107.733 33.9366 107.906 33.7649 107.906 33.5531C107.906 33.3414 107.733 33.1697 107.518 33.1697C107.304 33.1697 107.13 33.3414 107.13 33.5531C107.13 33.7649 107.304 33.9366 107.518 33.9366Z" fill="url(#paint13_linear_1_821)"/>
<path d="M107.518 33.7645C107.636 33.7645 107.732 33.6698 107.732 33.5531C107.732 33.4364 107.636 33.3418 107.518 33.3418C107.4 33.3418 107.305 33.4364 107.305 33.5531C107.305 33.6698 107.4 33.7645 107.518 33.7645Z" fill="#262870"/>
<path opacity="0.3" d="M107.45 33.5597C107.454 33.612 107.43 33.6556 107.397 33.66C107.364 33.6643 107.333 33.6229 107.329 33.5706C107.324 33.5183 107.349 33.4748 107.382 33.4704C107.415 33.4661 107.446 33.5074 107.45 33.5597Z" fill="url(#paint14_linear_1_821)"/>
<path opacity="0.3" d="M107.649 33.6393C107.682 33.6366 107.705 33.5927 107.701 33.5411C107.696 33.4895 107.666 33.4499 107.634 33.4526C107.601 33.4552 107.578 33.4992 107.582 33.5508C107.586 33.6023 107.616 33.642 107.649 33.6393Z" fill="url(#paint15_linear_1_821)"/>
<path d="M99.9087 64.6806C99.6134 68.8855 94.0048 71.1971 87.3824 69.8441C80.7601 68.4912 79.9006 64.8571 80.1959 60.6521C80.4912 56.4472 81.8289 53.2619 88.4513 54.6149C95.0736 55.9679 100.202 60.4735 99.9065 64.6784L99.9087 64.6806Z" fill="#00698A"/>
<path d="M98.1787 71.1558C98.1963 74.7899 93.5728 77.7987 87.8496 77.8815C82.1287 77.9621 81.1634 75.0295 81.1458 71.3976C81.1281 67.7635 82.0625 64.8048 87.7857 64.7242C93.5067 64.6436 98.1611 67.5238 98.1787 71.1558Z" fill="#00698A"/>
<path d="M95.6378 78.1756C95.7413 80.9491 92.2836 83.581 87.9158 84.0559C83.5479 84.5287 82.7391 82.3609 82.6355 79.5852C82.5319 76.8117 83.1732 74.4848 87.5411 74.0099C91.909 73.5371 95.5342 75.3999 95.6378 78.1734V78.1756Z" fill="#00698A"/>
<path d="M94.8334 75.9447C96.0058 77.0602 96.1138 79.0798 95.0736 80.5178C94.2825 81.6529 93.2974 82.2847 92.3277 82.8033C91.682 83.1366 91.0209 83.4046 90.3509 83.544C91.0098 83.3066 91.6534 82.9645 92.2836 82.5767C93.2092 81.9775 94.1524 81.3 94.8929 80.1757C95.77 78.8315 95.6223 77.4262 94.7298 76.2301C94.6306 76.1124 94.7232 75.8488 94.8312 75.9425L94.8334 75.9447Z" fill="black"/>
<path d="M97.4316 68.5042C98.117 69.0881 98.7341 70.4563 98.4233 71.8093C98.0795 73.1994 97.3677 74.2669 96.6207 74.9837C95.2631 76.267 93.7359 76.9075 92.2263 77.352C91.2214 77.6374 90.2077 77.8095 89.1939 77.8967C89.1653 77.8989 89.1389 77.8618 89.1366 77.8117C89.1366 77.7638 89.1565 77.7224 89.1851 77.7158C91.6511 77.2235 94.2318 76.535 96.3672 74.2735C97.0019 73.5741 97.5617 72.7288 97.9143 71.6002C98.236 70.5696 97.7402 69.5021 97.3237 68.7809C97.2355 68.6545 97.3325 68.4127 97.4338 68.5042H97.4316Z" fill="black"/>
<path d="M86.1902 54.1465C90.1504 54.3012 94.4103 55.6128 97.8459 59.127C99.1307 60.4822 100.87 63.2056 99.9065 66.0118C97.9407 70.5762 92.2638 70.6568 89.2226 70.2777C88.6055 70.2037 87.9885 70.1013 87.3758 69.9488C87.3428 69.94 87.3185 69.8878 87.3229 69.8289C87.3273 69.7723 87.3582 69.7352 87.3891 69.7396C88.6166 69.8856 89.8485 69.94 91.076 69.8747C93.4384 69.7243 96.0521 69.3649 98.1589 67.4193C98.4806 67.1099 98.7848 66.7591 99.0536 66.3364C99.415 65.831 99.6861 65.1076 99.6552 64.2906C99.4878 60.4778 95.2808 57.7457 93.4098 56.7261C91.0694 55.5016 88.6276 54.7674 86.1858 54.4798C86.1307 54.4755 86.0888 54.3949 86.091 54.3012C86.0954 54.214 86.1373 54.1465 86.188 54.1465H86.1902Z" fill="black"/>
</g>
</g>
<defs>
<linearGradient id="paint0_linear_1_821" x1="87.9186" y1="41.8792" x2="87.172" y2="41.9415" gradientUnits="userSpaceOnUse">
<stop/>
<stop offset="0.75" stop-color="#0E6A97"/>
<stop offset="1" stop-color="#29A8E6"/>
</linearGradient>
<linearGradient id="paint1_linear_1_821" x1="87.9186" y1="41.8792" x2="87.172" y2="41.9415" gradientUnits="userSpaceOnUse">
<stop/>
<stop offset="0.75" stop-color="#0E6A97"/>
<stop offset="1" stop-color="#29A8E6"/>
</linearGradient>
<linearGradient id="paint2_linear_1_821" x1="88.4126" y1="47.7761" x2="87.666" y2="47.8385" gradientUnits="userSpaceOnUse">
<stop/>
<stop offset="0.75" stop-color="#0E6A97"/>
<stop offset="1" stop-color="#29A8E6"/>
</linearGradient>
<linearGradient id="paint3_linear_1_821" x1="88.4126" y1="47.7761" x2="87.666" y2="47.8385" gradientUnits="userSpaceOnUse">
<stop/>
<stop offset="0.75" stop-color="#0E6A97"/>
<stop offset="1" stop-color="#29A8E6"/>
</linearGradient>
<linearGradient id="paint4_linear_1_821" x1="88.9175" y1="53.8007" x2="88.1709" y2="53.863" gradientUnits="userSpaceOnUse">
<stop/>
<stop offset="0.75" stop-color="#0E6A97"/>
<stop offset="1" stop-color="#29A8E6"/>
</linearGradient>
<linearGradient id="paint5_linear_1_821" x1="88.9175" y1="53.8007" x2="88.1709" y2="53.863" gradientUnits="userSpaceOnUse">
<stop/>
<stop offset="0.75" stop-color="#0E6A97"/>
<stop offset="1" stop-color="#29A8E6"/>
</linearGradient>
<linearGradient id="paint6_linear_1_821" x1="119.852" y1="48.0771" x2="120.904" y2="47.9892" gradientUnits="userSpaceOnUse">
<stop/>
<stop offset="0.75" stop-color="#0E6A97"/>
<stop offset="1" stop-color="#29A8E6"/>
</linearGradient>
<linearGradient id="paint7_linear_1_821" x1="54.7689" y1="234.733" x2="104.604" y2="61.9259" gradientUnits="userSpaceOnUse">
<stop/>
<stop offset="1" stop-color="white"/>
</linearGradient>
<linearGradient id="paint8_linear_1_821" x1="144.799" y1="110.12" x2="96.4157" y2="51.7847" gradientUnits="userSpaceOnUse">
<stop stop-color="#1393D1"/>
<stop offset="1" stop-color="white"/>
</linearGradient>
<linearGradient id="paint9_linear_1_821" x1="92.0593" y1="32.4057" x2="124.831" y2="31.1002" gradientUnits="userSpaceOnUse">
<stop stop-color="white"/>
<stop offset="0.22" stop-color="white" stop-opacity="0.76"/>
<stop offset="0.6" stop-color="white" stop-opacity="0.36"/>
<stop offset="0.87" stop-color="white" stop-opacity="0.1"/>
<stop offset="1" stop-color="white" stop-opacity="0"/>
</linearGradient>
<linearGradient id="paint10_linear_1_821" x1="88.6961" y1="59.0166" x2="90.3668" y2="58.9508" gradientUnits="userSpaceOnUse">
<stop stop-color="white"/>
<stop offset="0.22" stop-color="white" stop-opacity="0.76"/>
<stop offset="0.6" stop-color="white" stop-opacity="0.36"/>
<stop offset="0.87" stop-color="white" stop-opacity="0.1"/>
<stop offset="1" stop-color="white" stop-opacity="0"/>
</linearGradient>
<linearGradient id="paint11_linear_1_821" x1="121.261" y1="56.0845" x2="119.603" y2="56.2967" gradientUnits="userSpaceOnUse">
<stop stop-color="white"/>
<stop offset="0.22" stop-color="white" stop-opacity="0.76"/>
<stop offset="0.6" stop-color="white" stop-opacity="0.36"/>
<stop offset="0.87" stop-color="white" stop-opacity="0.1"/>
<stop offset="1" stop-color="white" stop-opacity="0"/>
</linearGradient>
<linearGradient id="paint12_linear_1_821" x1="107.007" y1="33.6185" x2="108.025" y2="33.4904" gradientUnits="userSpaceOnUse">
<stop stop-color="white"/>
<stop offset="0.5"/>
<stop offset="1" stop-color="#DBDBDB"/>
</linearGradient>
<linearGradient id="paint13_linear_1_821" x1="107.135" y1="33.5885" x2="107.906" y2="33.5242" gradientUnits="userSpaceOnUse">
<stop stop-color="white"/>
<stop offset="0.5"/>
<stop offset="1" stop-color="#DBDBDB"/>
</linearGradient>
<linearGradient id="paint14_linear_1_821" x1="107.372" y1="33.4665" x2="107.413" y2="33.6993" gradientUnits="userSpaceOnUse">
<stop stop-color="white"/>
<stop offset="0.22" stop-color="white" stop-opacity="0.76"/>
<stop offset="0.6" stop-color="white" stop-opacity="0.36"/>
<stop offset="0.87" stop-color="white" stop-opacity="0.1"/>
<stop offset="1" stop-color="white" stop-opacity="0"/>
</linearGradient>
<linearGradient id="paint15_linear_1_821" x1="107.624" y1="33.4446" x2="107.663" y2="33.6776" gradientUnits="userSpaceOnUse">
<stop stop-color="white"/>
<stop offset="0.22" stop-color="white" stop-opacity="0.76"/>
<stop offset="0.6" stop-color="white" stop-opacity="0.36"/>
<stop offset="0.87" stop-color="white" stop-opacity="0.1"/>
<stop offset="1" stop-color="white" stop-opacity="0"/>
</linearGradient>
<clipPath id="clip0_1_821">
<rect width="315" height="231" fill="white"/>
</clipPath>
<clipPath id="clip1_1_821">
<rect width="142" height="130" fill="white" transform="translate(80.1475 5.5)"/>
</clipPath>
</defs>
</svg>
